<svg id="Capa_1" enable-background="new 0 0 512 512" height="512" viewBox="0 0 512 512" width="512" xmlns="http://www.w3.org/2000/svg"><g><g><path d="m151.96 364.695c-1.37-5.602-6.39-9.542-12.156-9.542h-16.225-16.225c-5.767 0-10.787 3.94-12.156 9.542l-7.141 29.203c-1.927 7.883 4.041 15.487 12.156 15.487h23.365 23.365c8.115 0 14.084-7.604 12.156-15.487z" fill="#f9ef80"/></g><g><path d="m120.735 393.898 7.141-29.203c1.361-5.564 6.324-9.485 12.042-9.537-.038 0-.076-.005-.115-.005h-16.225-16.225c-5.767 0-10.787 3.941-12.156 9.542l-7.141 29.203c-1.927 7.883 4.042 15.487 12.156 15.487h23.365 9.313c-8.113 0-14.082-7.604-12.155-15.487z" fill="#f9d171"/></g><g><path d="m237.829 206.258c0 66.987-51.421 140.527-114.853 140.527s-114.852-73.541-114.852-140.527 51.421-121.29 114.853-121.29 114.852 54.303 114.852 121.29z" fill="#f9ef80"/></g><g><path d="m70.767 226.582c0-66.987 51.421-121.29 114.853-121.29.344 0 .687.011 1.03.014-18.224-12.845-40.119-20.338-63.674-20.338-63.431 0-114.853 54.303-114.853 121.29s51.421 140.527 114.853 140.527c2.006 0 4-.075 5.98-.219-34.748-26.553-58.189-74.759-58.189-119.984z" fill="#f9d171"/></g><g><path d="m151.523 370.578h-55.888c-7.945 0-14.445-6.5-14.445-14.445 0-7.945 6.5-14.445 14.445-14.445h55.888c7.945 0 14.445 6.5 14.445 14.445-.001 7.945-6.501 14.445-14.445 14.445z" fill="#e7faff"/></g><g><path d="m117.076 356.133c0-7.945 6.5-14.445 14.445-14.445h-35.886c-7.945 0-14.445 6.5-14.445 14.445s6.5 14.445 14.445 14.445h35.886c-7.945 0-14.445-6.5-14.445-14.445z" fill="#d5f0f7"/></g><g><path d="m418.007 364.781c-1.37-5.602-6.39-9.542-12.156-9.542h-16.225-16.225c-5.767 0-10.787 3.94-12.156 9.542l-7.141 29.203c-1.927 7.883 4.042 15.487 12.156 15.487h23.365 23.365c8.115 0 14.084-7.604 12.156-15.487z" fill="#ff8870"/></g><g><path d="m386.783 393.985 7.141-29.203c1.361-5.564 6.324-9.485 12.042-9.537-.038 0-.076-.005-.115-.005h-16.225-16.225c-5.767 0-10.787 3.941-12.156 9.542l-7.141 29.203c-1.927 7.883 4.042 15.487 12.156 15.487h23.365 9.313c-8.114 0-14.083-7.604-12.155-15.487z" fill="#ff6c52"/></g><g><path d="m503.876 206.345c0 66.987-51.421 140.527-114.853 140.527s-114.853-73.54-114.853-140.527 51.421-121.29 114.853-121.29 114.853 54.303 114.853 121.29z" fill="#ff8870"/></g><g><path d="m336.815 226.669c0-66.987 51.421-121.29 114.853-121.29.344 0 .687.011 1.03.014-18.224-12.845-40.119-20.338-63.674-20.338-63.431 0-114.853 54.303-114.853 121.29s51.421 140.527 114.853 140.527c2.006 0 4-.075 5.98-.219-34.748-26.553-58.189-74.759-58.189-119.984z" fill="#ff6c52"/></g><g><path d="m417.57 370.665h-55.888c-7.945 0-14.445-6.5-14.445-14.445 0-7.945 6.5-14.445 14.445-14.445h55.888c7.945 0 14.445 6.5 14.445 14.445 0 7.945-6.5 14.445-14.445 14.445z" fill="#e7faff"/></g><g><path d="m383.123 356.22c0-7.945 6.5-14.445 14.445-14.445h-35.886c-7.944 0-14.445 6.5-14.445 14.445 0 7.944 6.5 14.445 14.445 14.445h35.886c-7.945 0-14.445-6.501-14.445-14.445z" fill="#d5f0f7"/></g><g><path d="m285.632 338.877c-1.37-5.602-6.39-9.542-12.156-9.542h-16.225-16.225c-5.767 0-10.787 3.94-12.156 9.542l-7.141 29.203c-1.927 7.883 4.042 15.487 12.156 15.487h23.365 23.365c8.115 0 14.084-7.604 12.156-15.487z" fill="#87c7ff"/></g><g><path d="m254.408 368.08 7.141-29.203c1.361-5.564 6.324-9.485 12.042-9.537-.038 0-.076-.005-.115-.005h-16.225-16.225c-5.767 0-10.787 3.941-12.156 9.542l-7.141 29.203c-1.927 7.883 4.042 15.487 12.156 15.487h23.365 9.313c-8.114 0-14.083-7.604-12.155-15.487z" fill="#65b1fc"/></g><g><path d="m394.443 153.018c0 80.367-61.693 168.597-137.795 168.597s-137.795-88.23-137.795-168.597 61.694-145.518 137.796-145.518 137.794 65.151 137.794 145.518z" fill="#87c7ff"/></g><g><path d="m194.011 177.402c0-80.367 61.693-145.518 137.795-145.518.413 0 .824.013 1.236.017-21.865-15.411-48.134-24.401-76.393-24.401-76.102 0-137.795 65.151-137.795 145.518s61.693 168.597 137.795 168.597c2.407 0 4.798-.09 7.175-.263-41.69-31.856-69.813-89.692-69.813-143.95z" fill="#65b1fc"/></g><g><g><path d="m208.781 178.09c0 12.311-12.533 22.29-27.99 22.29-15.46 0-27.99-9.978-27.99-22.29 0-12.31 12.531-22.29 27.99-22.29 15.458 0 27.99 9.98 27.99 22.29" fill="#fff"/></g><g><path d="m304.516 178.09c0 12.311 12.532 22.29 27.99 22.29 15.459 0 27.99-9.978 27.99-22.29 0-12.31-12.532-22.29-27.99-22.29s-27.99 9.98-27.99 22.29" fill="#fff"/></g><g><path d="m279.216 160.964c0-13.947-10.104-15.258-22.567-15.258s-22.567 1.311-22.567 15.258c0 13.946 10.104 25.252 22.567 25.252s22.567-11.305 22.567-25.252" fill="#495560"/></g><g><path d="m185.469 158.979c-4.142 0-7.5-3.357-7.5-7.5v-11.429c0-4.143 3.358-7.5 7.5-7.5s7.5 3.357 7.5 7.5v11.429c0 4.142-3.358 7.5-7.5 7.5z"/></g><g><path d="m256.649 193.717c-16.58 0-30.068-14.693-30.068-32.753 0-22.758 21.07-22.758 30.068-22.758 8.997 0 30.067 0 30.067 22.758 0 18.059-13.488 32.753-30.067 32.753zm0-40.511c-15.068 0-15.068 2.593-15.068 7.758 0 9.789 6.759 17.753 15.068 17.753 8.308 0 15.067-7.964 15.067-17.753 0-5.165 0-7.758-15.067-7.758z"/></g><g><path d="m327.828 158.979c-4.142 0-7.5-3.357-7.5-7.5v-11.429c0-4.143 3.358-7.5 7.5-7.5s7.5 3.357 7.5 7.5v11.429c0 4.142-3.358 7.5-7.5 7.5z"/></g></g><g><path d="m285.195 344.76h-55.888c-7.945 0-14.445-6.5-14.445-14.445 0-7.945 6.5-14.445 14.445-14.445h55.888c7.945 0 14.445 6.5 14.445 14.445 0 7.945-6.5 14.445-14.445 14.445z" fill="#e7faff"/></g><g><path d="m250.748 330.315c0-7.945 6.5-14.445 14.445-14.445h-35.886c-7.945 0-14.445 6.5-14.445 14.445s6.5 14.445 14.445 14.445h35.886c-7.945 0-14.445-6.5-14.445-14.445z" fill="#d5f0f7"/></g><path d="m389.024 77.555c-1.94 0-3.886.064-5.828.16-6.286-11.678-14.079-22.552-23.279-32.341-2.836-3.019-7.583-3.167-10.602-.328-3.019 2.837-3.166 7.583-.329 10.602 24.477 26.043 37.957 60.623 37.957 97.37 0 66.175-44.059 135.878-98.213 155.379-.159.057-.31.127-.462.193-1.005-.141-2.03-.22-3.073-.22h-55.888c-1.339 0-2.648.127-3.921.358-.21-.098-.424-.189-.646-.269-20.613-7.382-40.223-21.898-56.71-41.981-2.629-3.202-7.355-3.667-10.556-1.038-3.202 2.628-3.667 7.354-1.038 10.556 10.106 12.31 21.342 22.74 33.299 31.012-11.428 12.12-24.387 21.252-37.837 26.598-.407.162-.787.362-1.149.583h-55.114c-.152 0-.303.008-.454.011-.39-.248-.805-.467-1.249-.644-43.911-17.528-78.308-73.444-78.308-127.298 0-62.744 48.158-113.79 107.353-113.79.082 0 .165.004.247.005-7.63 18.579-11.869 39.049-11.869 60.545 0 32.61 9.747 67.259 27.444 97.563 1.395 2.388 3.905 3.719 6.483 3.719 1.285 0 2.586-.33 3.775-1.024 3.577-2.089 4.783-6.682 2.694-10.259-16.377-28.044-25.397-60.006-25.397-89.999 0-76.104 58.45-138.018 130.295-138.018 24.919 0 49.136 7.475 70.034 21.615 3.431 2.32 8.094 1.422 10.415-2.009s1.422-8.094-2.008-10.415c-23.39-15.826-50.514-24.191-78.441-24.191-54.137 0-101.447 31.348-126.441 77.709-2.404-.148-4.827-.242-7.232-.242-67.465 0-122.353 57.775-122.353 128.79 0 28.463 8.746 58.508 24.625 84.601 14.01 23.02 32.549 41.108 52.987 51.923-2.847 3.702-4.546 8.331-4.546 13.351 0 8.2 4.524 15.36 11.204 19.126l-4.122 16.858c-1.47 6.008-.122 12.245 3.697 17.11 3.819 4.866 9.558 7.657 15.744 7.657h10.305c-5.178 14.703-3.505 31.281 5.061 47.086 8.374 15.45 11.368 26.123 1.895 34.957-3.03 2.825-3.195 7.571-.371 10.601 1.477 1.584 3.479 2.385 5.487 2.385 1.832 0 3.668-.667 5.113-2.015 19.815-18.478 7.15-41.846 1.063-53.075-4.496-8.296-10.365-24.057-1.925-39.938h20.102c6.186 0 11.925-2.791 15.744-7.657 3.819-4.865 5.167-11.103 3.698-17.11l-4.122-16.858c6.68-3.767 11.204-10.926 11.204-19.126 0-5.23-1.842-10.037-4.908-13.812 12.25-6.62 23.86-15.884 34.195-27.315 2.586 1.393 5.197 2.682 7.83 3.875-2.042 3.332-3.222 7.248-3.222 11.434 0 8.2 4.524 15.359 11.204 19.125l-4.122 16.858c-1.469 6.009-.121 12.246 3.699 17.112 3.819 4.865 9.558 7.656 15.743 7.656h10.305c-5.178 14.703-3.504 31.281 5.061 47.086 8.374 15.449 11.368 26.122 1.894 34.957-3.029 2.825-3.195 7.571-.37 10.601 1.477 1.584 3.479 2.385 5.486 2.385 1.832 0 3.668-.667 5.114-2.015 19.814-18.479 7.149-41.846 1.063-53.075-4.496-8.296-10.364-24.057-1.925-39.938h20.102c6.186 0 11.924-2.791 15.744-7.656 3.82-4.866 5.167-11.104 3.698-17.112l-4.122-16.858c6.68-3.766 11.204-10.925 11.204-19.125 0-4.369-1.288-8.44-3.498-11.864 2.005-.931 3.993-1.917 5.962-2.96 10.478 11.506 22.265 20.807 34.68 27.378-2.847 3.702-4.545 8.33-4.545 13.351 0 8.2 4.524 15.36 11.204 19.126l-4.122 16.858c-1.469 6.009-.122 12.245 3.698 17.111 3.82 4.865 9.558 7.656 15.744 7.656h10.273c-5.14 14.693-3.456 31.251 5.091 47.037 8.376 15.472 11.372 26.16 1.893 35.009-3.028 2.827-3.191 7.572-.364 10.601 1.477 1.582 3.478 2.382 5.484 2.382 1.833 0 3.671-.668 5.117-2.018 19.808-18.491 7.146-41.877 1.061-53.116-4.488-8.289-10.342-24.024-1.974-39.895h20.149c6.186 0 11.924-2.791 15.744-7.657 3.819-4.865 5.167-11.102 3.698-17.11l-4.122-16.858c6.68-3.767 11.204-10.926 11.204-19.126 0-5.227-1.84-10.031-4.902-13.804 20.294-10.969 38.679-29.133 52.524-52.109 15.631-25.939 24.239-55.758 24.239-83.962-.001-71.016-54.888-128.791-122.353-128.791zm-237.502 285.523h-55.887c-3.83 0-6.945-3.115-6.945-6.945 0-3.829 3.115-6.944 6.945-6.944h55.888c3.83 0 6.945 3.115 6.945 6.944-.001 3.83-3.116 6.945-6.946 6.945zm-.633 36.889c-.562.716-1.823 1.918-3.945 1.918h-24.385c-.013 0-.026 0-.039 0h-22.307c-2.122 0-3.382-1.202-3.945-1.918-.562-.717-1.43-2.226-.926-4.287l4.304-17.602h47.865l4.304 17.602c.504 2.061-.364 3.57-.926 4.287zm78.418-62.707c-3.83 0-6.945-3.115-6.945-6.944 0-3.83 3.115-6.945 6.945-6.945h55.888c3.83 0 6.945 3.115 6.945 6.945 0 3.829-3.115 6.944-6.945 6.944zm55.254 36.889c-.562.716-1.823 1.918-3.945 1.918h-24.379c-.017 0-.033 0-.049 0h-22.302c-2.122 0-3.382-1.202-3.944-1.918-.562-.717-1.431-2.227-.927-4.288l4.304-17.602h47.865l4.303 17.602c.505 2.062-.364 3.572-.926 4.288zm133.009-24.874c3.83 0 6.945 3.115 6.945 6.944 0 3.83-3.115 6.945-6.945 6.945h-55.888c-3.829 0-6.944-3.115-6.944-6.945 0-3.829 3.115-6.944 6.944-6.944zm-.634 50.778c-.562.717-1.823 1.919-3.945 1.919h-23.185c-.775-.122-1.558-.119-2.323 0h-21.222c-2.122 0-3.382-1.202-3.944-1.918-.562-.717-1.43-2.227-.927-4.287l4.304-17.602h47.865l4.304 17.602c.503 2.06-.364 3.57-.927 4.286zm2.238-66.861c-.672.279-1.278.649-1.819 1.083h-55.673c-.162 0-.322.009-.484.012-.405-.264-.841-.494-1.307-.68-13.189-5.281-25.926-14.224-37.184-26.045 46.17-31.53 79.237-93.466 79.237-154.545 0-21.118-4.051-41.595-11.748-60.447 58.656.669 106.181 51.445 106.181 113.774-.001 53.156-33.912 108.875-77.203 126.848z"/></g></svg>