<svg id="Capa_1" enable-background="new 0 0 511.999 511.999" height="512" viewBox="0 0 511.999 511.999" width="512" xmlns="http://www.w3.org/2000/svg"><g><g><g><path d="m367.607 310.105c-34.698 9.297-59.901-3.161-66.094-38.546l-17.918-45.244-16.138-92.217c-.893-5.103 2.258-10.042 7.262-11.383l45.659-12.234 27.978-6.765c5.004-1.341 11.203 10.362 12.981 15.227l37.897 121.073c12.329 33.741 3.071 60.792-31.627 70.089z" fill="#eaf3ff"/><path d="m399.233 240.017-11.717-59.43-26.18-71.644c-1.778-4.865-6.977-7.568-11.981-6.227l-28.978 7.765c5.004-1.341 10.203 1.362 11.981 6.227l47.897 131.073c10.549 28.868-2.037 58.143-27.621 72.402 4.943-.075 9.962-.735 14.972-2.078 34.699-9.297 43.957-44.348 31.627-78.088z" fill="#d5eaff"/><path d="m137.306 502.94-26.08-5.988-37.614-10.079c-8.699-2.331-13.861-11.272-11.53-19.971 2.331-8.699 11.272-13.861 19.971-11.531l39.091 10.475 24.603 7.592c8.699 2.331 3.861 10.272 1.531 18.971-2.332 8.7-1.273 12.862-9.972 10.531z" fill="#eaf3ff"/><path d="m145.747 472.438-26.08-6.988c8.699 2.331 13.861 11.272 11.531 19.971s-11.272 13.861-19.971 11.531l26.08 6.988c8.699 2.331 17.641-2.832 19.971-11.531 2.33-8.698-2.832-17.64-11.531-19.971z" fill="#d5eaff"/><path d="m253.013 69.849-12.486 6.564c-4.709 2.476-10.212-1.523-9.313-6.766l2.385-13.903c.357-2.082-.333-4.207-1.846-5.681l-10.101-9.846c-3.81-3.713-1.707-10.183 3.557-10.948l13.96-2.028c2.09-.304 3.898-1.617 4.833-3.511l.445-.902 5.798-9.18c2.355-4.771 9.157-4.771 11.512 0l3.676 11.366c.935 1.894 2.742 3.207 4.833 3.511l12.676.745c5.265.765 7.367 7.235 3.557 10.948l-8.818 9.846c-1.513 1.475-2.203 3.599-1.846 5.681l2.385 11.336c.899 5.244-4.604 9.242-9.313 6.766l-9.918-5.28c-.437-.23-.894.878-1.362.755-1.535-.403-3.182-.227-4.614.527z" fill="#ffe077"/><g><path d="m290.348 40.215c3.809-3.713 1.707-10.183-3.557-10.948l-13.96-2.028c-2.091-.304-3.898-1.617-4.833-3.511l-6.243-12.65c-2.354-4.77-9.157-4.77-11.512 0l-5.798 11.748.445.902c.935 1.894 2.742 3.207 4.833 3.511l13.959 2.028c5.265.765 7.367 7.235 3.557 10.948l-10.101 9.846c-1.513 1.475-2.203 3.599-1.846 5.681l2.329 13.582c.468.122.926.293 1.363.523l12.486 6.564c4.709 2.476 10.212-1.523 9.313-6.766l-2.384-13.903c-.357-2.082.333-4.207 1.846-5.681z" fill="#ffc344"/></g><path d="m438.388 455.874-26.08 7.988-37.614 10.079c-8.699 2.331-17.641-2.831-19.971-11.531-2.331-8.699 2.831-17.641 11.53-19.971l39.091-10.474 24.603-5.592c8.699-2.331 15.641 1.831 17.971 10.53 2.331 8.698-.831 16.64-9.53 18.971z" fill="#eaf3ff"/><path d="m429.947 425.371-26.08 6.988c8.699-2.331 17.641 2.831 19.971 11.53 2.331 8.699-2.832 17.641-11.531 19.971l26.08-6.988c8.699-2.331 13.861-11.272 11.53-19.971s-11.271-13.86-19.97-11.53z" fill="#d5eaff"/><path d="m386.329 198.753c-13.358 7.054-17.732-15.154-28.366-11.976-2.415.722-5.092 1.816-8.181 3.496-16.902 9.197-12.346 17.569-29.248 26.766-16.418 8.934-21.185 1.287-36.939 9.276l7.918 45.244c5.298 30.275 31.835 51.088 61.122 50.643 4.942-.075 9.962-1.755 14.972-3.098 34.698-9.297 43.956-45.349 31.626-79.089z" fill="#ffe077"/><path d="m387.516 180.587c-13.357 7.053-18.919 3.015-29.552 6.192l22.292 61.002c10.549 28.868-2.037 60.143-27.621 74.402 4.943-.075 9.962-.735 14.972-2.078 34.698-9.297 53.956-46.349 41.626-80.089z" fill="#ffc344"/><path d="m147.63 322.21c-34.698-9.297-36.585-11.378-24.256-45.117l-4.843-50.218 32.132-87.932c1.778-4.865 6.977-7.568 11.981-6.227l45.659 12.234 28.978 8.765c5.004 1.341-1.845 5.281-2.738 10.383l-24.057 137.462c-6.192 35.384-28.158 29.947-62.856 20.65z" fill="#eaf3ff"/><path d="m217.486 301.56 13.907-62.326 13.149-75.135c.893-5.103-2.258-10.042-7.262-11.383l-28.978-7.765c5.004 1.341 8.155 6.28 7.262 11.383l-24.056 137.461c-5.298 30.274-29.836 49.067-59.121 48.623 4.318 2.407 8.995 4.344 14.005 5.687 34.698 9.297 64.902-11.161 71.094-46.545z" fill="#d5eaff"/><path d="m213.665 254.337c-15.095-.57-.162-21.954-10.96-24.519-2.452-.583-5.317-.973-8.833-1.062-19.236-.486-19.477 9.042-38.712 8.556-18.685-.472-18.99-9.478-36.628-10.437l-15.765 43.142c-10.549 28.868 2.026 60.161 27.611 74.419 4.317 2.406 10.005 2.327 15.015 3.669h1c34.698 9.297 57.901-11.161 64.094-46.546z" fill="#ffe077"/><path d="m231.393 239.234c-15.094-.57-17.892-6.848-28.689-9.414l-11.196 63.975c-5.298 30.274-31.836 51.067-61.121 50.623 4.318 2.407 8.995 4.344 14.005 5.687 34.698 9.297 69.901-13.161 76.094-48.546z" fill="#ffc344"/></g></g><g><path d="m284.126 272.853c3.313 18.933 14.507 35.721 30.711 46.058 11.121 7.095 23.998 10.77 36.986 10.769 3.459 0 6.927-.269 10.371-.796l26.72 99.719-24.603 6.592c-12.68 3.397-20.231 16.478-16.834 29.157 1.646 6.143 5.585 11.276 11.092 14.455 3.668 2.118 7.739 3.2 11.864 3.2 2.068 0 4.149-.272 6.201-.822l63.694-17.067c6.143-1.645 11.276-5.584 14.456-11.091s4.024-11.923 2.378-18.065c-1.646-6.143-5.585-11.276-11.092-14.455-5.507-3.18-11.921-4.023-18.065-2.378l-24.603 6.592-26.72-99.719c15.43-6.018 28.323-17.494 36.027-32.316 8.864-17.055 10.164-37.19 3.567-55.243l-3.005-8.223c-1.422-3.891-5.731-5.892-9.619-4.47-3.891 1.421-5.892 5.727-4.47 9.618l3.005 8.223c5.232 14.317 4.242 29.651-2.788 43.177s-19.011 23.147-33.735 27.094c-14.727 3.942-29.912 1.602-42.762-6.597-12.851-8.198-21.375-20.982-24.003-35.998l-6.889-39.364c3.505-1.12 6.328-1.232 9.633-1.359 5.851-.225 12.482-.479 22.474-5.916 9.993-5.438 13.809-10.868 17.175-15.659 2.885-4.105 5.164-7.348 12.072-11.107 6.909-3.759 10.869-3.911 15.883-4.104 3.998-.153 8.374-.328 13.938-2.162l4.769 13.051c1.421 3.89 5.727 5.891 9.619 4.47 3.891-1.421 5.892-5.727 4.47-9.618l-33.666-92.129c-3.133-8.574-12.147-13.257-20.966-10.896l-74.637 19.998c-8.819 2.363-14.282 10.928-12.708 19.921zm-7.466-142.894 74.637-19.998c1.26-.337 2.546.332 2.995 1.557l23.743 64.975c-3.382 1.04-6.152 1.152-9.361 1.276-5.851.225-12.483.479-22.476 5.917s-13.809 10.868-17.175 15.659c-2.885 4.105-5.164 7.348-12.072 11.107-6.907 3.759-10.867 3.91-15.88 4.103-3.43.132-7.147.276-11.66 1.479l-14.565-83.228c-.226-1.286.554-2.509 1.814-2.847zm165.134 315.567c-1.176 2.036-3.075 3.493-5.347 4.103 0 0 0 0-.001 0l-63.695 17.067c-2.272.607-4.645.295-6.682-.88-2.037-1.176-3.494-3.075-4.103-5.348s-.297-4.646.879-6.683 3.076-3.494 5.348-4.104l63.695-17.066c.759-.203 1.528-.304 2.293-.304 1.526 0 3.032.4 4.389 1.184 2.037 1.176 3.494 3.075 4.103 5.348s.297 4.646-.879 6.683z"/><path d="m274.472 84.665c2.874 0 5.729-.9 8.168-2.673 4.318-3.138 6.44-8.354 5.537-13.613l-2.288-13.344 9.694-9.449c3.822-3.725 5.171-9.193 3.522-14.268s-5.955-8.705-11.235-9.472l-13.397-1.946-5.992-12.141c-2.362-4.786-7.145-7.759-12.481-7.759-5.337 0-10.119 2.973-12.481 7.759l-5.992 12.141-13.396 1.946c-5.281.767-9.587 4.397-11.236 9.472s-.3 10.543 3.522 14.269l9.694 9.448-2.289 13.344c-.902 5.26 1.22 10.477 5.538 13.613 4.317 3.137 9.933 3.543 14.658 1.06l11.982-6.3 11.983 6.3c2.054 1.08 4.277 1.613 6.489 1.613zm-24.95-21.454-10.546 5.544 2.015-11.744c.774-4.517-.722-9.122-4.003-12.32l-8.532-8.315 11.794-1.714c4.534-.661 8.451-3.508 10.477-7.614l5.273-10.686 5.273 10.684c2.026 4.107 5.943 6.954 10.48 7.615l11.792 1.714-8.533 8.316c-3.28 3.197-4.777 7.803-4.002 12.319l2.014 11.744-10.545-5.544c-4.057-2.134-8.902-2.134-12.957.001z"/><path d="m198.818 84.229c1.462 2.061 3.774 3.16 6.122 3.16 1.501 0 3.017-.45 4.335-1.385 3.378-2.397 4.173-7.079 1.775-10.457l-24.044-33.878c-2.397-3.377-7.079-4.172-10.457-1.775s-4.173 7.079-1.775 10.457z"/><path d="m139.587 100.902 43.444 12.486c.692.199 1.389.294 2.075.294 3.259 0 6.26-2.142 7.205-5.431 1.145-3.98-1.155-8.136-5.136-9.279l-43.444-12.486c-3.981-1.147-8.136 1.155-9.28 5.137-1.144 3.981 1.155 8.136 5.136 9.279z"/><path d="m311.033 89.806c1.668 0 3.348-.554 4.741-1.692l36.677-29.97c3.208-2.621 3.683-7.346 1.062-10.554-2.621-3.206-7.345-3.684-10.553-1.062l-36.677 29.97c-3.208 2.621-3.683 7.346-1.062 10.554 1.483 1.814 3.638 2.754 5.812 2.754z"/><path d="m95.722 267.442c-6.597 18.053-5.297 38.188 3.567 55.243 7.703 14.821 20.597 26.297 36.027 32.316l-26.719 99.718-24.603-6.592c-12.677-3.398-25.758 4.155-29.156 16.834-1.646 6.142-.802 12.558 2.378 18.064 3.18 5.508 8.313 9.447 14.455 11.092l63.695 17.067c2.056.551 4.122.814 6.156.814 10.51-.001 20.154-7.024 23.001-17.647 3.397-12.68-4.154-25.76-16.834-29.157l-24.603-6.592 26.717-99.709c3.485.54 6.99.818 10.491.818 7.458 0 14.893-1.225 22.043-3.665 3.92-1.337 6.014-5.6 4.676-9.52-1.338-3.921-5.601-6.016-9.52-4.676-10.053 3.43-20.828 3.778-31.159 1.012-14.725-3.946-26.705-13.568-33.735-27.094-7.03-13.525-8.02-28.859-2.788-43.177l13.716-37.534c3.595.782 6.096 2.097 9.022 3.64 5.179 2.73 11.05 5.826 22.421 6.113 11.371.282 17.393-2.508 22.704-4.974 4.551-2.112 8.145-3.796 16.009-3.582 7.863.198 11.369 2.047 15.807 4.387 3.539 1.865 7.417 3.902 13.152 5.097l-9.543 54.529c-1.644 9.393-5.739 18.169-11.844 25.381-2.676 3.162-2.283 7.895.879 10.57 1.409 1.192 3.13 1.775 4.842 1.775 2.129 0 4.245-.902 5.729-2.654 7.823-9.242 13.068-20.476 15.17-32.486l24.057-137.461c1.574-8.993-3.889-17.558-12.709-19.921l-74.636-19.998c-8.823-2.367-17.833 2.321-20.967 10.896l-9.176 25.112c-1.422 3.891.58 8.197 4.47 9.619 3.889 1.417 8.196-.58 9.619-4.471l9.176-25.112c.448-1.225 1.732-1.893 2.996-1.557l74.636 19.998c1.26.338 2.041 1.561 1.816 2.847l-11.925 68.141c-3.448-.79-5.904-2.078-8.745-3.576-5.18-2.73-11.05-5.825-22.423-6.113-11.374-.289-17.393 2.508-22.704 4.974-4.551 2.112-8.145 3.797-16.009 3.582-7.861-.198-11.366-2.046-15.804-4.386-3.036-1.601-6.326-3.335-10.837-4.549l8.605-23.547c1.422-3.891-.58-8.197-4.47-9.618-3.89-1.422-8.197.579-9.619 4.47zm48.083 212.241c2.272.609 4.172 2.066 5.348 4.104s1.488 4.41.88 6.683c-1.258 4.689-6.096 7.479-10.786 6.227l-63.696-17.067c-2.271-.609-4.17-2.066-5.347-4.104-1.176-2.037-1.488-4.41-.879-6.682 1.053-3.931 4.621-6.529 8.509-6.529.752 0 1.516.098 2.276.301z"/></g></g></svg>